<svg width="232" height="44" viewBox="0 0 232 44" fill="none" xmlns="http://www.w3.org/2000/svg">
<path d="M232 0H0V44H232V0Z" fill="#212529"/>
<path d="M3.96 7.104L5.148 7.148V24.308C5.148 31.1427 7.89067 34.56 13.376 34.56C18.8027 34.56 21.516 31.1427 21.516 24.308V7.148H22.704V23.868C22.704 31.6413 19.5947 35.528 13.376 35.528C7.09867 35.528 3.96 31.6267 3.96 23.824V7.104ZM27.7406 8.116V7.148H47.4966V8.116H37.8606V35H36.6726V8.116H27.7406ZM53.1441 10.008V35H51.9561V7.148H53.2761C54.5668 10.3747 56.0774 14.1587 57.8081 18.5C59.9788 23.868 61.9441 28.884 63.7041 33.548C65.3761 29.1187 67.3268 24.132 69.5561 18.588C71.3161 14.2467 72.8561 10.4333 74.1761 7.148H75.4081V35H74.2201V10.052C72.1374 15.508 69.7174 21.5213 66.9601 28.092C65.8748 30.7027 64.9214 33.0053 64.1001 35H63.3081C62.6334 33.328 61.7094 31.0987 60.5361 28.312L60.1841 27.476C57.4854 21.0227 55.1388 15.2 53.1441 10.008ZM89.0433 24.88H80.4633V23.912H89.0433V24.88Z" fill="white"/>
<path d="M114.647 9.63595C114.119 10.428 113.298 11.616 112.183 13.2C109.836 12.1733 107.739 11.66 105.891 11.66C103.456 11.66 102.239 12.5693 102.239 14.388C102.239 15.2093 102.518 15.8546 103.075 16.324C103.632 16.7933 104.791 17.3653 106.551 18.04C109.719 19.272 111.992 20.6066 113.371 22.044C114.779 23.4813 115.483 25.212 115.483 27.236C115.483 30.0813 114.412 32.2813 112.271 33.836C110.511 35.0973 108.326 35.728 105.715 35.728C102.635 35.728 99.3497 34.6133 95.859 32.384L98.411 28.82C100.112 29.964 102.298 30.536 104.967 30.536C107.988 30.536 109.499 29.3186 109.499 26.884C109.499 25.3 107.871 23.9506 104.615 22.836C99.3644 21.076 96.739 18.26 96.739 14.388C96.739 12.0413 97.619 10.1786 99.379 8.79995C101.022 7.47995 103.207 6.81995 105.935 6.81995C109.044 6.81995 111.948 7.75862 114.647 9.63595ZM131.427 6.81995C135.71 6.81995 139.01 8.52128 141.327 11.9239C143.146 14.5933 144.055 17.82 144.055 21.604C144.055 25.9453 142.867 29.4213 140.491 32.032C138.233 34.496 135.211 35.728 131.427 35.728C127.086 35.728 123.786 34.144 121.527 30.976C119.709 28.4826 118.799 25.3586 118.799 21.604C118.799 17.204 119.987 13.6106 122.363 10.824C124.622 8.15462 127.643 6.81995 131.427 6.81995ZM131.427 30.888C133.539 30.888 135.167 30.096 136.311 28.512C137.455 26.8986 138.027 24.596 138.027 21.604C138.027 18.4066 137.397 15.9133 136.135 14.1239C134.962 12.5399 133.393 11.7479 131.427 11.7479C129.315 11.7479 127.673 12.6133 126.499 14.3439C125.355 16.0746 124.783 18.4946 124.783 21.604C124.783 27.7933 126.998 30.888 131.427 30.888ZM169.236 32.076C166.802 34.5106 163.942 35.728 160.656 35.728C155.934 35.728 152.414 33.968 150.096 30.448C148.424 27.9253 147.588 24.9626 147.588 21.56C147.588 17.1306 148.732 13.5666 151.02 10.8679C153.279 8.16928 156.418 6.81995 160.436 6.81995C163.252 6.81995 166.068 8.00795 168.884 10.384L166.64 14.0359C164.528 12.5106 162.607 11.7479 160.876 11.7479C158.471 11.7479 156.608 12.7599 155.288 14.784C154.144 16.5146 153.572 18.7733 153.572 21.56C153.572 24.024 154.247 26.136 155.596 27.896C157.034 29.744 158.955 30.668 161.36 30.668C162.944 30.668 164.822 29.9786 166.992 28.6L169.236 32.076ZM180.204 7.34795V35.2H174.528V7.34795H180.204ZM194.199 7.34795H199.039L209.291 35.2H203.439C202.94 33.7333 202.324 31.7973 201.591 29.392H191.603C191.192 30.712 190.561 32.648 189.711 35.2H183.947L194.199 7.34795ZM196.663 14.872C195.841 17.1893 194.712 20.4453 193.275 24.64H199.963C198.584 20.592 197.484 17.336 196.663 14.872ZM213.028 35.2V7.34795H218.792V30.58H229.22V35.2H213.028Z" fill="white"/>
</svg>
