<svg width="1920" height="1080" viewBox="0 0 1920 1080" fill="none" xmlns="http://www.w3.org/2000/svg">
<rect width="1100" height="1080" fill="#101010"/>
<rect x="1097" width="831" height="1080" fill="#D01257"/>
<path d="M963.383 258.507C969.694 257.651 934.12 251.755 907.108 278.756C880.097 305.759 884.596 327.513 884.596 327.513C884.596 327.513 854.209 340.637 843.33 351.514C832.451 362.389 835.45 375.889 843.33 368.015C851.21 360.141 872.593 346.264 872.593 346.264C872.593 346.264 851.584 371.015 856.836 376.265C862.088 381.516 890.896 325.972 899.815 317.055C899.816 317.055 919.112 264.507 963.383 258.507Z" fill="white"/>
<path d="M946.126 442.271C946.126 442.271 911.608 473.025 911.608 495.526V527.029V555.531C911.608 584.033 952.127 571.282 946.126 550.281C940.122 529.279 914.614 533.78 921.365 518.029C928.118 502.278 937.871 531.558 937.871 507.167C937.871 482.773 920.616 501.528 946.126 442.271Z" fill="white"/>
<path d="M1298.78 389.018C1300.11 391.908 1322.04 420.52 1343.04 425.771C1364.05 431.021 1348.3 436.271 1370.81 448.272C1393.32 460.274 1396.32 458.772 1390.31 490.276C1384.31 521.778 1405.32 570.398 1405.32 570.398C1405.32 570.398 1399.32 533.78 1405.32 498.526C1411.32 463.273 1415.08 437.021 1405.32 437.021C1395.57 437.021 1404.94 399.895 1394.07 389.018C1383.19 378.14 1369.33 379.506 1359.82 389.018C1350.31 398.529 1343.42 380.392 1331.79 368.765C1320.16 357.139 1286.02 361.263 1298.78 389.018Z" fill="white"/>
<path d="M1388.82 611.036C1388.82 611.036 1387.32 637.288 1374.56 663.541C1361.8 689.792 1327.73 704.025 1340.8 708.705C1344.67 710.092 1336.29 697.295 1361.8 689.793C1387.32 682.292 1388.82 675.542 1388.82 664.291C1388.82 653.04 1400.07 664.291 1403.83 642.538C1407.57 620.787 1406.07 602.786 1388.82 611.036Z" fill="white"/>
<path d="M810.538 426.117C821.433 410.259 830.326 400.017 830.326 400.017C824.111 400.017 817.155 411.03 810.538 426.117Z" fill="white"/>
<path d="M1317.53 463.024C1309.03 471.524 1322.54 492.026 1322.54 492.026C1322.54 492.026 1303.03 465.524 1292.53 455.022C1292.53 455.022 1308.53 445.021 1303.53 440.021C1303.53 440.021 1336.54 449.023 1327.54 440.021C1318.54 431.022 1280.52 389.016 1245.51 393.016C1245.51 393.016 1268.52 359.012 1220.49 347.013C1220.49 347.013 1263.51 320.012 1279.52 347.013C1279.52 347.013 1269.52 308.009 1182.48 319.01C1103.1 329.045 1096.12 355.699 1095.5 360.317C1095.59 357.507 1094.01 347.013 1065.42 347.013C1032.41 347.013 1040.42 378.017 1040.42 378.017C1040.42 378.017 1019.91 376.515 1004.4 392.016C988.896 407.519 1000.4 442.021 1000.4 442.021C1000.4 442.021 983.892 440.52 960.382 464.022C936.873 487.525 972.389 554.029 999.399 562.031C1021.51 568.58 1036.25 563.738 1040.87 561.766L1041.72 561.774C1039.1 564.754 1030.79 576.414 1045.42 591.033C1062.43 608.036 1109.44 607.034 1109.44 607.034C1109.44 607.034 1093.44 638.037 1052.42 617.036C1052.42 617.036 1053.42 632.037 1076.43 641.038C1099.44 650.04 1155.47 629.037 1155.47 629.037C1155.47 629.037 1166.47 656.039 1197.48 642.038C1228.5 628.035 1234.5 582.033 1198.48 582.033C1198.48 582.033 1214.99 564.531 1192.48 542.03C1169.97 519.527 1151.46 527.028 1151.46 527.028C1151.46 527.028 1153.46 519.027 1135.45 514.027C1117.45 509.026 1109.44 509.026 1109.44 509.026C1109.44 509.026 1098.44 488.025 1120.45 481.025C1142.46 474.023 1152.46 496.024 1152.46 496.024C1152.46 496.024 1166.47 474.024 1148.46 465.024C1134.6 458.095 1119.59 456.504 1113.4 456.138C1118.5 455.915 1128.46 453.385 1128.46 437.021C1128.46 437.021 1204.99 456.521 1221.49 440.021C1238 423.52 1280.52 456.022 1301.53 496.024C1322.54 536.03 1319.04 549.531 1304.53 564.031C1290.02 578.534 1304.53 601.034 1309.53 606.034C1314.53 611.036 1296.52 648.04 1296.52 648.04V670.041C1296.52 670.041 1285.27 707.043 1274.76 710.794C1274.76 710.794 1282.27 683.793 1271.76 683.793C1271.76 683.793 1280.77 653.789 1280.77 646.288C1280.77 638.787 1283.77 629.037 1288.27 614.036C1292.77 599.033 1289.02 572.784 1284.52 562.282C1280.02 551.781 1272.51 506.776 1250.75 506.776C1229 506.776 1233.5 521.029 1240.25 536.03C1247 551.029 1248.5 554.781 1248.5 554.781C1248.5 554.781 1250.75 545.03 1262.76 557.033C1274.76 569.032 1266.51 608.786 1259.76 621.537C1253 634.288 1273.26 620.036 1273.26 627.537C1273.26 635.037 1271.76 671.791 1250 682.292C1228.24 692.793 1229.74 681.542 1217.74 681.542C1205.73 681.542 1216.99 698.793 1194.48 710.046C1171.97 721.296 1146.46 706.294 1146.46 720.544C1146.46 734.797 1186.23 722.046 1178.72 739.298C1171.22 756.548 1108.57 779.425 1091.68 762.548C1091.68 762.548 1048.92 764.798 1039.16 755.049C1029.4 745.298 1028.66 737.797 1028.66 737.797C1028.66 737.797 999.768 746.422 988.889 735.545C978.01 724.67 982.884 719.794 982.884 719.794C982.884 719.794 948.37 725.797 924.359 693.542C900.35 661.289 908.602 655.289 908.602 655.289C908.602 655.289 883.093 675.542 876.339 651.538C869.585 627.537 883.843 647.04 883.843 620.787C883.843 594.535 829.069 546.53 836.571 491.776C844.075 437.021 879.34 394.268 879.34 394.268C879.34 394.268 838.074 433.271 826.817 475.275C815.563 517.277 835.823 561.531 849.329 581.783C862.833 602.036 878.591 615.537 871.087 623.035C863.583 630.537 831.32 605.036 825.318 586.285C819.316 567.53 813.312 517.277 813.312 517.277L810.31 565.282C810.31 565.282 794.552 563.032 794.552 536.03C794.552 509.026 783.298 511.277 783.298 511.277C783.298 511.277 796.11 459.002 810.53 426.118C790.196 455.723 762.871 504.956 773.293 544.031C789.3 604.034 816.312 611.036 816.312 611.036C816.312 611.036 832.318 656.039 861.332 685.042C890.345 714.044 919.357 735.047 919.357 735.047C919.357 735.047 904.351 735.047 887.344 728.045C870.335 721.046 856.328 700.045 856.328 700.045C856.328 700.045 851.328 729.047 873.338 740.047C895.346 751.048 926.361 761.049 926.361 761.049C926.361 761.049 917.358 771.051 939.368 793.052C961.379 815.053 994.392 789.05 994.392 789.05C994.392 789.05 1012.4 801.891 1053.42 801.891H1118.45C1118.45 801.891 1110.44 820.052 1072.43 820.052C1072.43 820.052 1129.45 831.054 1161.46 815.053C1193.48 799.052 1213.49 783.05 1213.49 783.05C1213.49 783.05 1216.49 788.052 1234.5 794.052C1252.5 800.055 1317.53 764.051 1329.54 739.047C1341.54 714.046 1311.53 715.046 1298.52 740.048C1285.52 765.049 1259.51 769.051 1259.51 769.051C1259.51 769.051 1287.02 750.55 1280.52 744.048C1274.01 737.548 1241.5 756.049 1241.5 756.049C1241.5 756.049 1279.52 731.047 1286.52 716.047C1287.93 713.029 1288.99 710.423 1289.89 708.044C1291.65 710.097 1295.85 710.973 1304.53 709.046C1331.54 703.046 1332.31 626.039 1332.31 626.039C1332.31 626.039 1334.54 639.04 1345.55 628.037C1356.55 617.037 1335.54 528.032 1335.54 528.032C1335.54 528.032 1349.54 566.034 1358.55 557.034C1367.56 548.029 1326.04 454.524 1317.53 463.024ZM1173.47 550.281C1188.48 565.282 1165.97 590.783 1165.97 590.783C1165.97 590.783 1178.63 595.702 1178.63 608.995C1178.63 622.285 1153.22 621.951 1149.46 608.995C1149.46 608.995 1165.22 615.951 1165.22 608.995C1165.22 602.036 1154.67 599.033 1154.67 599.033C1154.67 599.033 1171.22 584.513 1166.72 570.398C1166.72 570.398 1154.67 580.282 1154.67 567.53C1154.67 554.781 1137.46 539.03 1130.71 539.03C1130.7 539.031 1158.47 535.278 1173.47 550.281ZM1183.98 395.766C1170.47 382.265 1186.98 376.614 1186.98 376.614C1186.98 376.614 1128.46 394.268 1144.21 371.015C1159.97 347.763 1194.48 354.514 1194.48 354.514C1168.47 362.015 1195.98 369.517 1195.98 369.517C1195.98 369.517 1186.98 376.614 1192.23 389.766C1197.48 402.918 1226 395.766 1226 395.766C1226 395.766 1197.48 409.271 1183.98 395.766ZM958.129 753.548C931.869 740.047 922.116 717.544 922.116 717.544C929.617 736.295 972.387 745.298 978.391 745.298C1001.66 745.298 1020.41 773.049 1020.41 773.049C1020.41 773.049 984.391 767.049 958.129 753.548Z" fill="white"/>
<path d="M1121.55 840.669C1121.55 840.669 1142.56 841.419 1159.07 836.918C1175.57 832.42 1163.57 867.672 1121.55 840.669Z" fill="white"/>
<path d="M1417.18 572.062C1417.18 572.062 1405.17 590.898 1417.18 596.149C1429.18 601.399 1435.19 567.476 1417.18 572.062Z" fill="white"/>
<path d="M937.722 593.149C937.722 593.149 930.97 608.995 952.732 608.995C974.489 608.993 952.73 585.647 937.722 593.149Z" fill="white"/>
<path d="M929.172 304.375C929.172 304.375 969.987 296.873 989.494 261.619C1009 226.367 1065.42 230.115 1065.42 230.115C1065.42 230.115 1016.51 226.879 1001.5 257.374C986.493 287.872 920.465 326.736 920.465 317.056C920.465 307.374 929.172 304.375 929.172 304.375Z" fill="white"/>
<path d="M1113.67 596.524C1113.67 596.524 1088.16 603.65 1067.53 591.662C1046.9 579.677 1062.65 557.145 1062.65 557.145C1056.29 560.277 1049.08 561.663 1041.72 561.774C1039.13 564.724 1030.76 576.381 1045.42 591.035C1062.43 608.037 1109.44 607.036 1109.44 607.036C1118.85 603.172 1113.67 596.524 1113.67 596.524Z" fill="#CCE9FF"/>
<path d="M991.372 540.268C981.241 524.518 992.94 502.766 992.94 502.766C992.94 502.766 992.869 518.143 1010.13 539.142C1027.38 560.145 1051.21 540.831 1046.14 535.77C1041.08 530.705 1024.38 523.767 1016.88 511.767C1009.38 499.766 1016.13 483.637 1016.13 483.637C1016.13 483.637 994.371 490.014 1004.12 470.513C1013.88 451.012 1050.27 448.385 1050.27 448.385C1050.27 448.385 1024.38 440.511 1033.76 413.068C1043.14 385.627 1061.9 391.756 1061.9 391.756C1061.9 391.756 1054.77 368.879 1065.41 362.677C1076.06 356.479 1095.5 360.318 1095.5 360.318C1095.59 357.507 1094.01 347.014 1065.41 347.014C1032.41 347.014 1040.41 378.018 1040.41 378.018C1040.41 378.018 1019.9 376.516 1004.4 392.017C988.892 407.519 1000.4 442.023 1000.4 442.023C1000.4 442.023 983.889 440.521 960.378 464.024C936.869 487.526 972.385 554.031 999.397 562.032C1021.53 568.588 1036.26 563.734 1040.86 561.764C1020.29 561.789 998.753 551.751 991.372 540.268Z" fill="#CCE9FF"/>
<path d="M1270.53 625.245C1271.22 625.245 1271.82 625.345 1272.28 625.6C1272.05 625.03 1271.86 624.479 1271.62 623.901C1271.62 623.901 1271.23 624.394 1270.53 625.245Z" fill="#CCE9FF"/>
<path d="M1105.79 776.915C1122.3 776.915 1192.83 767.163 1202.59 748.412C1212.34 729.661 1193.96 736.037 1202.59 727.409C1211.22 718.784 1225.47 732.284 1236.35 721.41C1247.23 710.533 1268.61 692.156 1252.86 692.156C1237.55 692.156 1290.23 675.858 1273.26 628.136C1273.19 636.684 1271.29 672.017 1250.01 682.292C1228.25 692.793 1229.75 681.543 1217.74 681.543C1205.74 681.543 1216.99 698.793 1194.48 710.046C1171.97 721.295 1146.46 706.294 1146.46 720.544C1146.46 734.797 1186.23 722.045 1178.73 739.298C1171.22 756.548 1108.57 779.424 1091.69 762.547C1091.69 762.547 1097.54 776.915 1105.79 776.915Z" fill="#CCE9FF"/>
</svg>
