<svg width="1734" height="472" viewBox="0 0 1734 472" fill="none" xmlns="http://www.w3.org/2000/svg">
<rect y="1" width="1732" height="471" rx="43" fill="#202020"/>
<path d="M0 44C0 20.2518 19.2518 1 43 1H1689C1712.75 1 1732 20.2518 1732 44V429C1732 452.748 1712.75 472 1689 472H43C19.2517 472 0 452.748 0 429V44Z" fill="black"/>
<path d="M1732.5 258.5C1398.5 258.5 1435.84 87.1666 1470.5 1.49998H1569H1668C1725 0.500001 1731.34 26.3333 1732.5 44V258.5Z" fill="white" stroke="white" stroke-width="2"/>
<path d="M1569.22 53L1592.5 12.9669L1615.78 53H1569.22Z" stroke="black" stroke-width="6"/>
<path d="M1481.5 100.5H1521.5V140.5H1481.5V100.5Z" stroke="black" stroke-width="5"/>
<path d="M1611 181L1574 219M1611 219L1574 181" stroke="black" stroke-width="9"/>
<circle cx="1680.5" cy="122.5" r="22" stroke="black" stroke-width="5"/>
</svg>
