<svg width="142" height="142" viewBox="0 0 142 142" fill="none" xmlns="http://www.w3.org/2000/svg">
<g clip-path="url(#clip0)">
<path d="M29.5892 -6.10352e-05C27.9554 -6.10352e-05 26.6308 1.32453 26.6308 2.95836V14.7918C26.6308 16.4256 27.9554 17.7502 29.5892 17.7502C31.223 17.7502 32.5476 16.4256 32.5476 14.7918V2.95808C32.5476 1.32425 31.223 -6.10352e-05 29.5892 -6.10352e-05Z" fill="#37474F"/>
<path d="M41.4226 11.8334H29.5892C27.9554 11.8334 26.6308 10.5088 26.6308 8.87498C26.6308 7.24116 27.9554 5.91656 29.5892 5.91656H41.4226C43.0565 5.91656 44.381 7.24116 44.381 8.87498C44.381 10.5088 43.0567 11.8334 41.4226 11.8334Z" fill="#37474F"/>
<path d="M41.4227 17.7502C39.7888 17.7502 38.4642 16.4257 38.4642 14.7918V2.95842C38.4642 1.32459 39.7888 0 41.4227 0C43.0565 0 44.3811 1.32459 44.3811 2.95842V14.7918C44.3811 16.4257 43.0568 17.7502 41.4227 17.7502Z" fill="#37474F"/>
<path d="M65.0894 5.91684H53.256C51.6222 5.91684 50.2976 4.59225 50.2976 2.95842C50.2976 1.32459 51.6222 0 53.256 0H65.0894C66.7233 0 68.0479 1.32459 68.0479 2.95842C68.0479 4.59225 66.7233 5.91684 65.0894 5.91684Z" fill="#37474F"/>
<path d="M59.1726 17.7502C57.5388 17.7502 56.2142 16.4257 56.2142 14.7918V2.95842C56.2142 1.32459 57.5388 0 59.1726 0C60.8064 0 62.131 1.32459 62.131 2.95842V14.7918C62.131 16.4257 60.8067 17.7502 59.1726 17.7502Z" fill="#37474F"/>
<path d="M94.6725 17.7503C93.0387 17.7503 91.7141 16.4257 91.7141 14.7918V11.8334L88.1641 16.5668C87.0886 17.874 85.1572 18.0617 83.85 16.9862C83.697 16.8603 83.5566 16.7199 83.4307 16.5668L79.8807 11.8334V14.7918C79.8807 16.4257 78.5561 17.7503 76.9223 17.7503C75.2885 17.7503 73.9639 16.4257 73.9639 14.7918V2.95844C73.9639 1.32461 75.2885 2.05045e-05 76.9223 2.05045e-05C77.8533 2.05045e-05 78.7303 0.4385 79.2889 1.18344L85.7973 9.85735L92.3057 1.18344C93.2861 -0.123674 95.1404 -0.388537 96.4473 0.591871C97.1922 1.15044 97.6307 2.0274 97.6307 2.95844V14.7918C97.631 16.4257 96.3066 17.7503 94.6725 17.7503Z" fill="#37474F"/>
<path d="M115.381 17.7502H106.506C104.872 17.7502 103.547 16.4257 103.547 14.7918V2.95842C103.547 1.32459 104.872 0 106.506 0C108.14 0 109.464 1.32459 109.464 2.95842V11.8334H115.381C117.015 11.8334 118.339 13.158 118.339 14.7918C118.339 16.4257 117.015 17.7502 115.381 17.7502Z" fill="#37474F"/>
<path d="M120.528 30.5538C119.968 29.9362 119.173 29.584 118.339 29.5834H23.6727C22.0388 29.5762 20.7084 30.8947 20.7012 32.5285C20.7007 32.6259 20.7051 32.7229 20.7143 32.8197L29.5892 127.486C29.7038 128.701 30.5519 129.72 31.7251 130.054L73.1416 141.887C73.4089 141.963 73.686 142.001 73.9639 142C74.2812 141.999 74.5968 141.95 74.8988 141.852L110.399 130.019C111.512 129.648 112.301 128.655 112.41 127.486L121.285 32.8197C121.363 31.9916 121.088 31.169 120.528 30.5538Z" fill="#000"/>
<path d="M73.9644 118.333C73.6901 118.332 73.4172 118.292 73.1537 118.215L52.4456 112.298C51.4291 112.009 50.6442 111.199 50.3866 110.174L47.4282 98.3406C46.9961 96.765 47.9232 95.1373 49.4988 94.7052C51.0744 94.2731 52.7021 95.2003 53.1342 96.7759C53.1464 96.82 53.1572 96.864 53.1672 96.9087L55.7113 107.085L73.8992 112.28L88.9631 107.257L91.4007 82.833H47.3394C45.8406 82.8449 44.5699 81.7341 44.381 80.2473L41.4226 56.5808C41.2168 54.96 42.3636 53.4793 43.9844 53.2732C44.1158 53.2565 44.2484 53.2485 44.3807 53.2496H100.589C102.223 53.2496 103.547 54.5742 103.547 56.208C103.547 57.8419 102.223 59.1665 100.589 59.1665H47.7299L49.9487 76.9164H94.6728C96.3066 76.9081 97.6376 78.226 97.6459 79.8599C97.6464 79.9636 97.6414 80.0673 97.6312 80.1705L94.6728 109.754C94.5579 110.914 93.7728 111.899 92.667 112.269L74.917 118.185C74.6092 118.285 74.2877 118.335 73.9644 118.333Z" fill="#FAFAFA"/>
</g>
<defs>
<clipPath id="clip0">
<rect width="142" height="142" fill="white"/>
</clipPath>
</defs>
</svg>
