<svg width="180" height="144" viewBox="0 0 180 144" fill="none" xmlns="http://www.w3.org/2000/svg">
<path d="M71.7554 65.7746C71.881 66.2768 71.9438 66.9045 71.9438 67.6578C71.9438 68.3796 71.881 69.0073 71.7554 69.5409C71.881 70.0431 71.9438 70.6708 71.9438 71.424C71.9438 72.1459 71.881 72.7736 71.7554 73.3071C71.881 73.8093 71.9438 74.437 71.9438 75.1903C71.9438 75.9121 71.881 76.5398 71.7554 77.0734C71.881 77.5755 71.9438 78.2033 71.9438 78.9565C71.9438 79.6784 71.881 80.3061 71.7554 80.8396C71.881 81.3418 71.9438 81.9695 71.9438 82.7228C71.9438 83.4446 71.881 84.0723 71.7554 84.6059C71.881 85.108 71.9438 85.7358 71.9438 86.489C71.9438 87.2109 71.881 87.8386 71.7554 88.3721H67.9892C67.8637 87.8386 67.8009 87.2109 67.8009 86.489C67.8009 85.7358 67.8637 85.108 67.9892 84.6059C67.8637 84.0723 67.8009 83.4446 67.8009 82.7228C67.8009 81.9695 67.8637 81.3418 67.9892 80.8396C67.8637 80.3061 67.8009 79.6784 67.8009 78.9565C67.8009 78.2033 67.8637 77.5755 67.9892 77.0734C67.8637 76.5398 67.8009 75.9121 67.8009 75.1903C67.8009 74.437 67.8637 73.8093 67.9892 73.3071C67.8637 72.7736 67.8009 72.1459 67.8009 71.424C67.8009 70.6708 67.8637 70.0431 67.9892 69.5409H66.5768C66.7024 70.0431 66.7652 70.6708 66.7652 71.424C66.7652 72.1459 66.7024 72.7736 66.5768 73.3071C66.7024 73.8093 66.7652 74.437 66.7652 75.1903C66.7652 75.9121 66.7024 76.5398 66.5768 77.0734H65.6353C65.7608 77.5755 65.8236 78.2033 65.8236 78.9565C65.8236 79.6784 65.7608 80.3061 65.6353 80.8396C65.7608 81.3418 65.8236 81.9695 65.8236 82.7228C65.8236 83.4446 65.7608 84.0723 65.6353 84.6059H62.8106C62.6851 84.0723 62.6223 83.4446 62.6223 82.7228C62.6223 81.9695 62.6851 81.3418 62.8106 80.8396C62.6851 80.3061 62.6223 79.6784 62.6223 78.9565C62.6223 78.2033 62.6851 77.5755 62.8106 77.0734H61.869C61.7435 76.5398 61.6807 75.9121 61.6807 75.1903C61.6807 74.437 61.7435 73.8093 61.869 73.3071C61.7435 72.7736 61.6807 72.1459 61.6807 71.424C61.6807 70.6708 61.7435 70.0431 61.869 69.5409H60.4567C60.5822 70.0431 60.645 70.6708 60.645 71.424C60.645 72.1459 60.5822 72.7736 60.4567 73.3071C60.5822 73.8093 60.645 74.437 60.645 75.1903C60.645 75.9121 60.5822 76.5398 60.4567 77.0734C60.5822 77.5755 60.645 78.2033 60.645 78.9565C60.645 79.6784 60.5822 80.3061 60.4567 80.8396C60.5822 81.3418 60.645 81.9695 60.645 82.7228C60.645 83.4446 60.5822 84.0723 60.4567 84.6059C60.5822 85.108 60.645 85.7358 60.645 86.489C60.645 87.2109 60.5822 87.8386 60.4567 88.3721H56.6904C56.5649 87.8386 56.5021 87.2109 56.5021 86.489C56.5021 85.7358 56.5649 85.108 56.6904 84.6059C56.5649 84.0723 56.5021 83.4446 56.5021 82.7228C56.5021 81.9695 56.5649 81.3418 56.6904 80.8396C56.5649 80.3061 56.5021 79.6784 56.5021 78.9565C56.5021 78.2033 56.5649 77.5755 56.6904 77.0734C56.5649 76.5398 56.5021 75.9121 56.5021 75.1903C56.5021 74.437 56.5649 73.8093 56.6904 73.3071C56.5649 72.7736 56.5021 72.1459 56.5021 71.424C56.5021 70.6708 56.5649 70.0431 56.6904 69.5409C56.5649 69.0073 56.5021 68.3796 56.5021 67.6578C56.5021 66.9045 56.5649 66.2768 56.6904 65.7746C56.5649 65.2411 56.5021 64.6134 56.5021 63.8915C56.5021 63.1383 56.5649 62.5106 56.6904 62.0084H61.3983C61.5238 62.5106 61.5866 63.1383 61.5866 63.8915C61.5866 64.6134 61.5238 65.2411 61.3983 65.7746H62.8106C62.9361 66.2768 62.9989 66.9045 62.9989 67.6578C62.9989 68.3796 62.9361 69.0073 62.8106 69.5409H63.5168C63.6423 70.0431 63.7051 70.6708 63.7051 71.424C63.7051 72.1459 63.6423 72.7736 63.5168 73.3071H64.9291C64.8036 72.7736 64.7408 72.1459 64.7408 71.424C64.7408 70.6708 64.8036 70.0431 64.9291 69.5409H65.6353C65.5097 69.0073 65.447 68.3796 65.447 67.6578C65.447 66.9045 65.5097 66.2768 65.6353 65.7746H67.0476C66.9221 65.2411 66.8593 64.6134 66.8593 63.8915C66.8593 63.1383 66.9221 62.5106 67.0476 62.0084H71.7554C71.881 62.5106 71.9438 63.1383 71.9438 63.8915C71.9438 64.6134 71.881 65.2411 71.7554 65.7746Z" fill="white"/>
<path d="M90.7934 82.7228C90.7934 83.4446 90.7306 84.0723 90.6051 84.6059C90.7306 85.108 90.7934 85.7358 90.7934 86.489C90.7934 87.2109 90.7306 87.8386 90.6051 88.3721H86.8388C86.7133 87.8386 86.6505 87.2109 86.6505 86.489C86.6505 85.7358 86.7133 85.108 86.8388 84.6059C86.7133 84.0723 86.6505 83.4446 86.6505 82.7228C86.6505 81.9695 86.7133 81.3418 86.8388 80.8396H79.3063C79.4319 81.3418 79.4946 81.9695 79.4946 82.7228C79.4946 83.4446 79.4319 84.0723 79.3063 84.6059C79.4319 85.108 79.4946 85.7358 79.4946 86.489C79.4946 87.2109 79.4319 87.8386 79.3063 88.3721H75.5401C75.4145 87.8386 75.3518 87.2109 75.3518 86.489C75.3518 85.7358 75.4145 85.108 75.5401 84.6059C75.4145 84.0723 75.3518 83.4446 75.3518 82.7228C75.3518 81.9695 75.4145 81.3418 75.5401 80.8396H76.9524C76.8269 80.3061 76.7641 79.6784 76.7641 78.9565C76.7641 78.2033 76.8269 77.5755 76.9524 77.0734C76.8269 76.5398 76.7641 75.9121 76.7641 75.1903C76.7641 74.437 76.8269 73.8093 76.9524 73.3071H77.894C77.7684 72.7736 77.7057 72.1459 77.7057 71.424C77.7057 70.6708 77.7684 70.0431 77.894 69.5409H79.3063C79.1808 69.0073 79.118 68.3796 79.118 67.6578C79.118 66.9045 79.1808 66.2768 79.3063 65.7746H80.2479C80.1223 65.2411 80.0596 64.6134 80.0596 63.8915C80.0596 63.1383 80.1223 62.5106 80.2479 62.0084H85.8973C86.0228 62.5106 86.0856 63.1383 86.0856 63.8915C86.0856 64.6134 86.0228 65.2411 85.8973 65.7746H86.8388C86.9644 66.2768 87.0271 66.9045 87.0271 67.6578C87.0271 68.3796 86.9644 69.0073 86.8388 69.5409H88.2512C88.3767 70.0431 88.4395 70.6708 88.4395 71.424C88.4395 72.1459 88.3767 72.7736 88.2512 73.3071H89.1927C89.3183 73.8093 89.381 74.437 89.381 75.1903C89.381 75.9121 89.3183 76.5398 89.1927 77.0734C89.3183 77.5755 89.381 78.2033 89.381 78.9565C89.381 79.6784 89.3183 80.3061 89.1927 80.8396H90.6051C90.7306 81.3418 90.7934 81.9695 90.7934 82.7228ZM85.4265 77.0734C85.3009 76.5398 85.2382 75.9121 85.2382 75.1903C85.2382 74.437 85.3009 73.8093 85.4265 73.3071H84.4849C84.3594 72.7736 84.2966 72.1459 84.2966 71.424C84.2966 70.6708 84.3594 70.0431 84.4849 69.5409H81.6602C81.7858 70.0431 81.8485 70.6708 81.8485 71.424C81.8485 72.1459 81.7858 72.7736 81.6602 73.3071H80.7187C80.8442 73.8093 80.907 74.437 80.907 75.1903C80.907 75.9121 80.8442 76.5398 80.7187 77.0734H85.4265Z" fill="white"/>
<path d="M108.701 63.8915C108.701 64.6134 108.639 65.2411 108.513 65.7746H105.688C105.814 66.2768 105.877 66.9045 105.877 67.6578C105.877 68.3796 105.814 69.0073 105.688 69.5409C105.814 70.0431 105.877 70.6708 105.877 71.424C105.877 72.1459 105.814 72.7736 105.688 73.3071C105.814 73.8093 105.877 74.437 105.877 75.1903C105.877 75.9121 105.814 76.5398 105.688 77.0734C105.814 77.5755 105.877 78.2033 105.877 78.9565C105.877 79.6784 105.814 80.3061 105.688 80.8396C105.814 81.3418 105.877 81.9695 105.877 82.7228C105.877 83.4446 105.814 84.0723 105.688 84.6059H103.805C103.931 85.108 103.994 85.7358 103.994 86.489C103.994 87.2109 103.931 87.8386 103.805 88.3721H96.2728C96.1473 87.8386 96.0845 87.2109 96.0845 86.489C96.0845 85.7358 96.1473 85.108 96.2728 84.6059H94.3897C94.2642 84.0723 94.2014 83.4446 94.2014 82.7228C94.2014 81.9695 94.2642 81.3418 94.3897 80.8396H98.156C98.2815 81.3418 98.3443 81.9695 98.3443 82.7228C98.3443 83.4446 98.2815 84.0723 98.156 84.6059H101.922C101.797 84.0723 101.734 83.4446 101.734 82.7228C101.734 81.9695 101.797 81.3418 101.922 80.8396C101.797 80.3061 101.734 79.6784 101.734 78.9565C101.734 78.2033 101.797 77.5755 101.922 77.0734C101.797 76.5398 101.734 75.9121 101.734 75.1903C101.734 74.437 101.797 73.8093 101.922 73.3071C101.797 72.7736 101.734 72.1459 101.734 71.424C101.734 70.6708 101.797 70.0431 101.922 69.5409C101.797 69.0073 101.734 68.3796 101.734 67.6578C101.734 66.9045 101.797 66.2768 101.922 65.7746H99.0975C98.972 65.2411 98.9092 64.6134 98.9092 63.8915C98.9092 63.1383 98.972 62.5106 99.0975 62.0084H108.513C108.639 62.5106 108.701 63.1383 108.701 63.8915Z" fill="white"/>
<path d="M128.304 73.3071C128.43 73.8093 128.493 74.437 128.493 75.1903C128.493 75.9121 128.43 76.5398 128.304 77.0734C128.43 77.5755 128.493 78.2033 128.493 78.9565C128.493 79.6784 128.43 80.3061 128.304 80.8396H126.421C126.547 81.3418 126.61 81.9695 126.61 82.7228C126.61 83.4446 126.547 84.0723 126.421 84.6059H124.538C124.664 85.108 124.726 85.7358 124.726 86.489C124.726 87.2109 124.664 87.8386 124.538 88.3721H113.239C113.114 87.8386 113.051 87.2109 113.051 86.489C113.051 85.7358 113.114 85.108 113.239 84.6059C113.114 84.0723 113.051 83.4446 113.051 82.7228C113.051 81.9695 113.114 81.3418 113.239 80.8396C113.114 80.3061 113.051 79.6784 113.051 78.9565C113.051 78.2033 113.114 77.5755 113.239 77.0734C113.114 76.5398 113.051 75.9121 113.051 75.1903C113.051 74.437 113.114 73.8093 113.239 73.3071C113.114 72.7736 113.051 72.1459 113.051 71.424C113.051 70.6708 113.114 70.0431 113.239 69.5409C113.114 69.0073 113.051 68.3796 113.051 67.6578C113.051 66.9045 113.114 66.2768 113.239 65.7746C113.114 65.2411 113.051 64.6134 113.051 63.8915C113.051 63.1383 113.114 62.5106 113.239 62.0084H124.538C124.664 62.5106 124.726 63.1383 124.726 63.8915C124.726 64.6134 124.664 65.2411 124.538 65.7746H126.421C126.547 66.2768 126.61 66.9045 126.61 67.6578C126.61 68.3796 126.547 69.0073 126.421 69.5409H128.304C128.43 70.0431 128.493 70.6708 128.493 71.424C128.493 72.1459 128.43 72.7736 128.304 73.3071ZM124.538 80.8396C124.413 80.3061 124.35 79.6784 124.35 78.9565C124.35 78.2033 124.413 77.5755 124.538 77.0734C124.413 76.5398 124.35 75.9121 124.35 75.1903C124.35 74.437 124.413 73.8093 124.538 73.3071C124.413 72.7736 124.35 72.1459 124.35 71.424C124.35 70.6708 124.413 70.0431 124.538 69.5409H122.655C122.529 69.0073 122.467 68.3796 122.467 67.6578C122.467 66.9045 122.529 66.2768 122.655 65.7746H117.006C117.131 66.2768 117.194 66.9045 117.194 67.6578C117.194 68.3796 117.131 69.0073 117.006 69.5409C117.131 70.0431 117.194 70.6708 117.194 71.424C117.194 72.1459 117.131 72.7736 117.006 73.3071C117.131 73.8093 117.194 74.437 117.194 75.1903C117.194 75.9121 117.131 76.5398 117.006 77.0734C117.131 77.5755 117.194 78.2033 117.194 78.9565C117.194 79.6784 117.131 80.3061 117.006 80.8396C117.131 81.3418 117.194 81.9695 117.194 82.7228C117.194 83.4446 117.131 84.0723 117.006 84.6059H122.655C122.529 84.0723 122.467 83.4446 122.467 82.7228C122.467 81.9695 122.529 81.3418 122.655 80.8396H124.538Z" fill="white"/>
<path d="M56.6489 117.259C53.276 116.092 49.609 112.638 48.2757 109.205C50.9763 110.851 54.8926 114.622 56.6489 117.259Z" fill="#D01257"/>
<path d="M115.035 121.805C101.676 130.602 82.768 131.883 67.8491 123.908C83.3036 129.251 99.1919 128.904 115.035 121.805Z" fill="#D01257"/>
<path d="M141.99 65.7476C144.4 72.6139 144.104 82.0321 140.916 88.9679C142.801 68.7934 141.707 72.8561 141.99 65.7476Z" fill="#D01257"/>
<path d="M110.122 25.6892C120.218 28.5889 129.915 36.742 134.481 46.3283C126.938 37.1334 120.403 31.5843 110.122 25.6892Z" fill="#D01257"/>
<path d="M40.9124 52.1933C45.829 38.6895 58.3889 27.5022 72.3949 24.2188C59.018 30.0764 48.7544 38.8283 40.9124 52.1933Z" fill="#D01257"/>
<path d="M49.3115 97.933C46.9308 95.8264 45.1012 91.7473 45.1697 88.4945C46.8277 90.7559 48.7643 95.1747 49.3115 97.933Z" fill="#D01257"/>
<path d="M95.674 121.417C81.7482 124.112 65.797 118.775 56.2514 107.177C67.3735 117.009 80.5857 121.872 95.674 121.417Z" fill="#D01257"/>
<path d="M136.769 84.5464C136.413 91.0779 132.939 98.6654 128.025 103.235C132.626 94.5725 132.619 94.7617 136.769 84.5464Z" fill="#D01257"/>
<path d="M124.187 40.899C131.487 46.6938 136.682 56.6629 137.184 66.0742C134.107 55.9788 130.624 49.2138 124.187 40.899Z" fill="#D01257"/>
<path d="M58.4302 39.227C67.0376 29.8109 81.1294 24.8826 93.7319 26.9279C80.7724 27.2086 69.3898 30.9165 58.4302 39.227Z" fill="#D01257"/>
<path d="M66.1894 90C54.0883 96.3235 23.9453 110.055 8.18939 116C24.2932 107.576 54.5622 94.3923 66.1894 90Z" fill="#D01257"/>
<path d="M15.9476 40.899C29.8894 45.6045 50.8798 54.4774 63.9859 61.2261C50.0432 56.5284 29.0572 47.643 15.9476 40.899Z" fill="#D01257"/>
<path d="M0 66.5897C15.5058 67.1277 39.4094 69.6533 54.7113 72.3901C39.2072 71.8586 15.3036 69.3201 0 66.5897Z" fill="#D01257"/>
<path d="M94.1894 93C101.488 106.266 111.907 130.097 115.189 139C109.127 127.993 98.2101 103.887 94.1894 93Z" fill="#D01257"/>
<path d="M82.5179 97.2373C79.4413 110.642 73.0409 130.951 67.8487 143.717C70.9202 130.31 77.3318 110.006 82.5179 97.2373Z" fill="#D01257"/>
<path d="M130.694 77.9569C144.335 76.8582 165.521 76.8495 179.189 77.9569C165.549 79.0642 144.362 79.0591 130.694 77.9569Z" fill="#D01257"/>
<path d="M106.235 59.6075C115.839 49.5625 131.889 35.2289 142.985 26.8146C133.384 36.8631 117.327 51.1867 106.235 59.6075Z" fill="#D01257"/>
<path d="M91.1894 60C88.3964 46.9132 83.5492 15.5577 82.1894 0C85.4307 15.1583 90.0115 46.5836 91.1894 60Z" fill="#D01257"/>
<path d="M43.303 19.8306C50.0643 26.1051 58.761 36.7872 62.7833 43.21C57.2086 38.1123 48.2671 27.6367 43.303 19.8306Z" fill="#D01257"/>
<path d="M158.943 56.7065C150.249 60.4395 136.239 64.4505 128.025 65.7475C135.345 62.5461 149.29 58.2975 158.943 56.7065Z" fill="#D01257"/>
<path d="M143.483 125.096C136.426 120.653 126.913 112.429 122.302 107.177C128.224 110.841 137.917 118.854 143.483 125.096Z" fill="#D01257"/>
<path d="M15.9476 84.5464C22.3325 82.1178 32.305 80.3626 37.9155 80.3233C32.7026 82.3631 22.7939 84.4339 15.9476 84.5464Z" fill="#D01257"/>
</svg>
