<svg width="215" height="40" viewBox="0 0 215 40" fill="none" xmlns="http://www.w3.org/2000/svg">
<rect width="215" height="40" fill="black"/>
<path d="M11.6758 7.01953L19.5273 25.2617L21.8906 31.1016H21.9688L32.0469 7.01953H34.7227V33.1328H33.043V21.0625C33.043 17.1562 33.1341 13.0091 33.3164 8.62109H33.1602C31.2201 12.957 30.0221 15.6719 29.5664 16.7656L22.8086 33.1328H21.1289L14.1953 16.7656C13.8568 15.9583 12.6458 13.2435 10.5625 8.62109H10.4453C10.6276 14.1549 10.7188 18.3021 10.7188 21.0625V33.1328H9V7.01953H11.6758Z" fill="white"/>
<path d="M39.0195 33.1328L49.7031 7.01953H51.3828L62.1055 33.1328H60.2109L56.4609 23.8555H44.625L40.8945 33.1328H39.0195ZM55.8164 22.293L54.8203 19.7734C52.6458 14.3698 51.2461 10.7956 50.6211 9.05078H50.543C50.0091 10.5352 49.1302 12.7422 47.9062 15.6719C47.5286 16.5703 46.6302 18.7773 45.2109 22.293H55.8164Z" fill="white"/>
<path d="M64.2344 33.0547V31.375C65.224 31.7786 66.2331 31.9805 67.2617 31.9805C68.6029 31.9805 69.6771 31.6549 70.4844 31.0039C71.3047 30.3398 71.7148 29.1289 71.7148 27.3711V7.01953H73.4336V27.8984C73.4336 28.9141 73.2057 29.8776 72.75 30.7891C72.3073 31.6875 71.6432 32.3841 70.7578 32.8789C69.8724 33.3737 68.7461 33.6211 67.3789 33.6211C65.8815 33.5951 64.8333 33.4062 64.2344 33.0547Z" fill="white"/>
<path d="M85.4453 7.01953C87.75 7.01953 89.5404 7.14974 90.8164 7.41016C94.0326 8.23047 96.4219 9.72786 97.9844 11.9023C99.5469 14.0638 100.328 16.7396 100.328 19.9297C100.328 23.263 99.4753 26.0755 97.7695 28.3672C96.0768 30.6589 93.7591 32.1172 90.8164 32.7422C89.5143 33.0026 87.9128 33.1328 86.0117 33.1328H80.3281V7.01953H85.4453ZM98.4922 19.9688C98.4922 17.0911 97.8411 14.7214 96.5391 12.8594C95.25 10.9844 93.3815 9.71484 90.9336 9.05078C90.1784 8.85547 89.332 8.73177 88.3945 8.67969C87.457 8.61458 86.2331 8.58203 84.7227 8.58203H82.0469V31.5703H84.8594C86.2786 31.5703 87.3984 31.5508 88.2188 31.5117C89.0521 31.4596 89.8333 31.349 90.5625 31.1797C93.0365 30.6328 94.9766 29.3633 96.3828 27.3711C97.7891 25.3789 98.4922 22.9115 98.4922 19.9688Z" fill="white"/>
<path d="M121.109 26.4727H111.266L108.707 33.1328H103.609L113.98 7H118.355L128.727 33.1328H123.668L121.109 26.4727ZM116.148 13.2891C115.237 16.0234 114.423 18.3086 113.707 20.1445L112.809 22.4688H119.566L118.668 20.1445C117.952 18.2956 117.138 16.0104 116.227 13.2891H116.148Z" fill="white"/>
<path d="M137.223 7V29.1289H149.449V33.1328H132.438V7H137.223Z" fill="white"/>
<path d="M168.922 26.4727H159.078L156.52 33.1328H151.422L161.793 7H166.168L176.539 33.1328H171.48L168.922 26.4727ZM163.961 13.2891C163.049 16.0234 162.236 18.3086 161.52 20.1445L160.621 22.4688H167.379L166.48 20.1445C165.764 18.2956 164.951 16.0104 164.039 13.2891H163.961Z" fill="white"/>
<path d="M185.035 7V29.1289H197.262V33.1328H180.25V7H185.035Z" fill="white"/>
<path d="M201.773 33.1328V7H206.559V33.1328H201.773Z" fill="white"/>
</svg>
