<svg width="83" height="48" viewBox="0 0 83 48" fill="none" xmlns="http://www.w3.org/2000/svg">
<rect width="83" height="47.725" rx="5" fill="#FFEB00"/>
<circle cx="23.8625" cy="24.5542" r="16.4458" fill="white" stroke="black"/>
<circle cx="58.4459" cy="24.5542" r="16.4458" fill="white" stroke="black"/>
<circle cx="58.6232" cy="24.5541" r="5.39861" fill="#00B2E5" stroke="black" stroke-width="0.5"/>
<circle cx="58.6232" cy="24.5541" r="2.56755" fill="black"/>
<circle class="animate__bounce" cx="23.8625" cy="24.5541" r="5.39861" fill="#00B2E5" stroke="black" stroke-width="0.5"/>
<circle class="animate__bounce" cx="23.8625" cy="24.5541" r="2.56755" fill="black"/>
<path d="M63.9792 8.9917L66.4 4.8417M57.7542 7.9542V3.8042M51.875 8.9917L49.8 4.8417" stroke="black"/>
<path d="M30.0875 8.99171L32.5084 4.84171M23.8625 7.60837V5.53337V3.45837M17.9834 9.33754L15.9084 5.18754" stroke="black"/>
<circle class="animate__bounce" cx="5.53339" cy="6.22504" r="2.76667" fill="#BF9100"/>
<circle class="animate__bounce" cx="5.53339" cy="42.1917" r="2.76667" fill="#BF9100"/>
<circle cx="43.575" cy="6.22504" r="2.76667" fill="#BF9100"/>
<circle cx="77.4666" cy="41.5" r="3.45833" fill="#BF9100"/>
<circle cx="77.4666" cy="7.60836" r="3.45833" fill="#BF9100"/>
<path fill-rule="evenodd" clip-rule="evenodd" d="M42.8041 41.4028C42.7654 41.4028 42.7727 41.38 42.8169 41.3337L42.8041 41.4028ZM43.0939 39.8323L42.8169 41.3337C42.859 41.2895 42.9347 41.2238 43.0359 41.1361C43.95 40.3432 46.9415 37.7483 46.0138 32.8972C45.7499 32.2771 45.3632 31.7135 44.8757 31.2389C44.3882 30.7642 43.8095 30.3877 43.1726 30.1308C42.5356 29.8739 41.853 29.7417 41.1635 29.7417C40.4741 29.7417 39.7915 29.8739 39.1545 30.1308C38.5176 30.3877 37.9389 30.7642 37.4514 31.2389C36.9639 31.7135 36.5364 32.2621 36.3133 32.8972C35.0934 36.3709 37.4514 38.767 37.8824 39.0865L37.7103 38.3463C37.1182 37.4929 36.7654 36.4192 36.7654 35.2527C36.7654 32.4737 38.7679 30.2209 41.2381 30.2209C43.7083 30.2209 45.7108 32.4737 45.7108 35.2527C45.7108 37.2869 44.6379 39.0392 43.0939 39.8323Z" fill="black"/>
<path d="M45.65 34.5834C46.3417 36.6584 43.2913 40.4625 40.8083 40.4625C38.3253 40.4625 36.6583 36.8753 36.6583 34.5834C36.6583 32.2914 38.6712 30.0875 41.1542 30.0875C43.6371 30.0875 45.65 32.2914 45.65 34.5834Z" fill="#FFEB00"/>
<path d="M77.4667 36.6583C77.4667 35.6208 77.2075 34.3241 76.4292 33.5458C75.6509 32.7675 74.4173 32.1625 73.3167 32.1625C72.216 32.1625 70.9825 32.4217 70.2042 33.2C69.4259 33.9783 69.1667 35.5577 69.1667 36.6583" stroke="black" stroke-linecap="round"/>
<path d="M77.1208 35.9404C77.1208 37.4684 73.8072 38.7597 72.2792 38.7597C70.7512 38.7597 69.5125 37.521 69.5125 35.993C69.1667 34.2376 71.097 32.5084 72.625 32.5084C75.0458 31.8167 77.1208 34.4124 77.1208 35.9404Z" fill="#FFEB00"/>
<path d="M4.14998 37.0041C4.14998 35.9666 4.40921 34.6699 5.18748 33.8916C5.96576 33.1134 7.19933 32.5083 8.29998 32.5083C9.40063 32.5083 10.6342 32.7675 11.4125 33.5458C12.1908 34.3241 12.45 35.9035 12.45 37.0041" stroke="black" stroke-linecap="round"/>
<path d="M4.49586 36.2862C4.49586 37.8142 7.80954 39.1055 9.33753 39.1055C10.8655 39.1055 12.1042 37.8668 12.1042 36.3388C12.45 34.5834 10.5197 32.8542 8.9917 32.8542C6.57088 32.1625 4.49586 34.7582 4.49586 36.2862Z" fill="#FFEB00"/>
<circle cx="71.5875" cy="33.5458" r="0.345833" fill="black"/>
<circle cx="75.0458" cy="34.2376" r="0.345833" fill="black"/>
<circle cx="72.9708" cy="34.9292" r="0.345833" fill="black"/>
<circle r="0.345833" transform="matrix(-1 0 0 1 9.33752 34.2376)" fill="black"/>
<circle r="0.345833" transform="matrix(-1 0 0 1 5.87914 34.9292)" fill="black"/>
<circle r="0.345833" transform="matrix(-1 0 0 1 7.95418 35.6209)" fill="black"/>
</svg>
